<mxfile host="Electron" agent="Mozilla/5.0 (Windows NT 10.0; Win64; x64) AppleWebKit/537.36 (KHTML, like Gecko) draw.io/24.7.5 Chrome/126.0.6478.183 Electron/31.3.0 Safari/537.36" version="24.7.5">
  <diagram id="C5RBs43oDa-KdzZeNtuy" name="Page-1">
    <mxGraphModel dx="3538" dy="1102" grid="1" gridSize="10" guides="1" tooltips="1" connect="1" arrows="1" fold="1" page="1" pageScale="1" pageWidth="827" pageHeight="1169" math="0" shadow="0">
      <root>
        <mxCell id="WIyWlLk6GJQsqaUBKTNV-0" />
        <mxCell id="WIyWlLk6GJQsqaUBKTNV-1" parent="WIyWlLk6GJQsqaUBKTNV-0" />
        <mxCell id="w4jq3ZxT6kkiRwnjtZpk-90" value="CurrentTimePanel" style="swimlane;fontStyle=3;align=center;verticalAlign=top;childLayout=stackLayout;horizontal=1;startSize=26;horizontalStack=0;resizeParent=1;resizeLast=0;collapsible=1;marginBottom=0;rounded=0;shadow=0;strokeWidth=1;fillColor=#dae8fc;strokeColor=#6c8ebf;" vertex="1" parent="WIyWlLk6GJQsqaUBKTNV-1">
          <mxGeometry x="100" y="40" width="290" height="150" as="geometry">
            <mxRectangle x="230" y="140" width="160" height="26" as="alternateBounds" />
          </mxGeometry>
        </mxCell>
        <mxCell id="w4jq3ZxT6kkiRwnjtZpk-91" value="-timeLabel:JLabel" style="text;align=left;verticalAlign=top;spacingLeft=4;spacingRight=4;overflow=hidden;rotatable=0;points=[[0,0.5],[1,0.5]];portConstraint=eastwest;" vertex="1" parent="w4jq3ZxT6kkiRwnjtZpk-90">
          <mxGeometry y="26" width="290" height="26" as="geometry" />
        </mxCell>
        <mxCell id="w4jq3ZxT6kkiRwnjtZpk-92" value="-timeFormat: SimpleDataFormat" style="text;align=left;verticalAlign=top;spacingLeft=4;spacingRight=4;overflow=hidden;rotatable=0;points=[[0,0.5],[1,0.5]];portConstraint=eastwest;rounded=0;shadow=0;html=0;" vertex="1" parent="w4jq3ZxT6kkiRwnjtZpk-90">
          <mxGeometry y="52" width="290" height="26" as="geometry" />
        </mxCell>
        <mxCell id="w4jq3ZxT6kkiRwnjtZpk-93" value="" style="line;html=1;strokeWidth=1;align=left;verticalAlign=middle;spacingTop=-1;spacingLeft=3;spacingRight=3;rotatable=0;labelPosition=right;points=[];portConstraint=eastwest;" vertex="1" parent="w4jq3ZxT6kkiRwnjtZpk-90">
          <mxGeometry y="78" width="290" height="8" as="geometry" />
        </mxCell>
        <mxCell id="w4jq3ZxT6kkiRwnjtZpk-94" value="+ CurrentTimePanel(): void" style="text;align=left;verticalAlign=top;spacingLeft=4;spacingRight=4;overflow=hidden;rotatable=0;points=[[0,0.5],[1,0.5]];portConstraint=eastwest;" vertex="1" parent="w4jq3ZxT6kkiRwnjtZpk-90">
          <mxGeometry y="86" width="290" height="26" as="geometry" />
        </mxCell>
        <mxCell id="w4jq3ZxT6kkiRwnjtZpk-95" value="+ updateTime(): void" style="text;align=left;verticalAlign=top;spacingLeft=4;spacingRight=4;overflow=hidden;rotatable=0;points=[[0,0.5],[1,0.5]];portConstraint=eastwest;" vertex="1" parent="w4jq3ZxT6kkiRwnjtZpk-90">
          <mxGeometry y="112" width="290" height="26" as="geometry" />
        </mxCell>
        <mxCell id="w4jq3ZxT6kkiRwnjtZpk-96" value="AdvertisementDisplay" style="swimlane;fontStyle=3;align=center;verticalAlign=top;childLayout=stackLayout;horizontal=1;startSize=26;horizontalStack=0;resizeParent=1;resizeLast=0;collapsible=1;marginBottom=0;rounded=0;shadow=0;strokeWidth=1;fillColor=#dae8fc;strokeColor=#6c8ebf;" vertex="1" parent="WIyWlLk6GJQsqaUBKTNV-1">
          <mxGeometry x="462.68" y="190" width="320" height="570" as="geometry">
            <mxRectangle x="230" y="140" width="160" height="26" as="alternateBounds" />
          </mxGeometry>
        </mxCell>
        <mxCell id="w4jq3ZxT6kkiRwnjtZpk-97" value="- adPanel: Adpanel&#xa;- timer: TImer&#xa;- ads: List&lt;Ads&gt;&#xa;- currentAdIndex: int = 0&#xa;- mapIcon: ImageIcon&#xa;- mapImage: BufferedImage&#xa;- trainpositions: Map&lt;Integer, Point&gt; = new HashMap&lt;&gt;()&#xa;- trainMap: TrainMap = new TrainMap() &#xa;- weatherVisualLabel: JLabel&#xa;- weatherLabel: JLabel&#xa;- weatherCondition: String&#xa;- weatherConditionLabel: JLabel&#xa;- newsTextArea: JtextArea&#xa;- currentTimePanel: CurrentTimePanel&#xa;- trainTracker: TrainTracker&#xa;-  nextStationLabel: JLabel&#xa;- currentStationLabel: JLabel&#xa;- previousStationLabel: JLabel &#xa;&#xa;&#xa;" style="text;align=left;verticalAlign=top;spacingLeft=4;spacingRight=4;overflow=hidden;rotatable=0;points=[[0,0.5],[1,0.5]];portConstraint=eastwest;" vertex="1" parent="w4jq3ZxT6kkiRwnjtZpk-96">
          <mxGeometry y="26" width="320" height="264" as="geometry" />
        </mxCell>
        <mxCell id="w4jq3ZxT6kkiRwnjtZpk-98" value="" style="line;html=1;strokeWidth=1;align=left;verticalAlign=middle;spacingTop=-1;spacingLeft=3;spacingRight=3;rotatable=0;labelPosition=right;points=[];portConstraint=eastwest;" vertex="1" parent="w4jq3ZxT6kkiRwnjtZpk-96">
          <mxGeometry y="290" width="320" height="50" as="geometry" />
        </mxCell>
        <mxCell id="w4jq3ZxT6kkiRwnjtZpk-99" value="+ AdvertisementDisplay(line: String, trainNumber: int)&#xa;- void fetchAndDisplayWeather(): void&#xa;- String getConditionText(condition: String): String&#xa;- String getConditionText(condition:String): String&#xa;private class AdTask extends TimerTask&#xa;private class AdPanel extends JPanel&#xa;- startSubwaySimulator(): void&#xa;- processTrainData(line: String): void&#xa;- updateMapWithTrainData(): void&#xa;- updateWeatherVisual(): void&#xa;- fetchAndDisplayNews(keyword: String): void&#xa;- updateNextTrainStations(currentStation: Station): void&#xa;- updateMapWithNextTrainData(): void&#xa;- updateNextTrainPanel(currentStation: Station): void&#xa;&#xa;&#xa;&#xa;" style="text;align=left;verticalAlign=top;spacingLeft=4;spacingRight=4;overflow=hidden;rotatable=0;points=[[0,0.5],[1,0.5]];portConstraint=eastwest;strokeColor=none;" vertex="1" parent="w4jq3ZxT6kkiRwnjtZpk-96">
          <mxGeometry y="340" width="320" height="230" as="geometry" />
        </mxCell>
        <mxCell id="w4jq3ZxT6kkiRwnjtZpk-100" value="Ad" style="swimlane;fontStyle=3;align=center;verticalAlign=top;childLayout=stackLayout;horizontal=1;startSize=26;horizontalStack=0;resizeParent=1;resizeLast=0;collapsible=1;marginBottom=0;rounded=0;shadow=0;strokeWidth=1;fillColor=#dae8fc;strokeColor=#6c8ebf;" vertex="1" parent="WIyWlLk6GJQsqaUBKTNV-1">
          <mxGeometry x="-870" y="530" width="330" height="410" as="geometry">
            <mxRectangle x="230" y="140" width="160" height="26" as="alternateBounds" />
          </mxGeometry>
        </mxCell>
        <mxCell id="w4jq3ZxT6kkiRwnjtZpk-101" value="-content: String" style="text;align=left;verticalAlign=top;spacingLeft=4;spacingRight=4;overflow=hidden;rotatable=0;points=[[0,0.5],[1,0.5]];portConstraint=eastwest;" vertex="1" parent="w4jq3ZxT6kkiRwnjtZpk-100">
          <mxGeometry y="26" width="330" height="26" as="geometry" />
        </mxCell>
        <mxCell id="w4jq3ZxT6kkiRwnjtZpk-102" value="-mediaType: String" style="text;align=left;verticalAlign=top;spacingLeft=4;spacingRight=4;overflow=hidden;rotatable=0;points=[[0,0.5],[1,0.5]];portConstraint=eastwest;rounded=0;shadow=0;html=0;" vertex="1" parent="w4jq3ZxT6kkiRwnjtZpk-100">
          <mxGeometry y="52" width="330" height="26" as="geometry" />
        </mxCell>
        <mxCell id="w4jq3ZxT6kkiRwnjtZpk-103" value="-mediaPath: String " style="text;align=left;verticalAlign=top;spacingLeft=4;spacingRight=4;overflow=hidden;rotatable=0;points=[[0,0.5],[1,0.5]];portConstraint=eastwest;rounded=0;shadow=0;html=0;" vertex="1" parent="w4jq3ZxT6kkiRwnjtZpk-100">
          <mxGeometry y="78" width="330" height="26" as="geometry" />
        </mxCell>
        <mxCell id="w4jq3ZxT6kkiRwnjtZpk-104" value="" style="line;html=1;strokeWidth=1;align=left;verticalAlign=middle;spacingTop=-1;spacingLeft=3;spacingRight=3;rotatable=0;labelPosition=right;points=[];portConstraint=eastwest;" vertex="1" parent="w4jq3ZxT6kkiRwnjtZpk-100">
          <mxGeometry y="104" width="330" height="36" as="geometry" />
        </mxCell>
        <mxCell id="w4jq3ZxT6kkiRwnjtZpk-105" value="+ Ad(String content, String MediaType, String MediaPath)&#xa;&#xa;+ getContent(): String&#xa;&#xa;+ setContent(content:String): void&#xa;&#xa;+ getMediaType(): String&#xa;&#xa;+ setMediaType(MediaType:String): void&#xa;&#xa;+ getMediaPath(): String&#xa;&#xa;+ setMediaPath(MediaPath:String): void&#xa;&#xa;+ toString(): String&#xa;&#xa;" style="text;align=left;verticalAlign=top;spacingLeft=4;spacingRight=4;overflow=hidden;rotatable=0;points=[[0,0.5],[1,0.5]];portConstraint=eastwest;fontSize=12;" vertex="1" parent="w4jq3ZxT6kkiRwnjtZpk-100">
          <mxGeometry y="140" width="330" height="240" as="geometry" />
        </mxCell>
        <mxCell id="w4jq3ZxT6kkiRwnjtZpk-106" value="DatabaseManager" style="swimlane;fontStyle=3;align=center;verticalAlign=top;childLayout=stackLayout;horizontal=1;startSize=26;horizontalStack=0;resizeParent=1;resizeLast=0;collapsible=1;marginBottom=0;rounded=0;shadow=0;strokeWidth=1;fillColor=#dae8fc;strokeColor=#6c8ebf;" vertex="1" parent="WIyWlLk6GJQsqaUBKTNV-1">
          <mxGeometry x="-490" y="430" width="410" height="260" as="geometry">
            <mxRectangle x="230" y="140" width="160" height="26" as="alternateBounds" />
          </mxGeometry>
        </mxCell>
        <mxCell id="w4jq3ZxT6kkiRwnjtZpk-107" value="- URL: String = &quot;jdbc:sqlite:subway_ads.db&quot;" style="text;align=left;verticalAlign=top;spacingLeft=4;spacingRight=4;overflow=hidden;rotatable=0;points=[[0,0.5],[1,0.5]];portConstraint=eastwest;fontStyle=4" vertex="1" parent="w4jq3ZxT6kkiRwnjtZpk-106">
          <mxGeometry y="26" width="410" height="26" as="geometry" />
        </mxCell>
        <mxCell id="w4jq3ZxT6kkiRwnjtZpk-108" value="" style="line;html=1;strokeWidth=1;align=left;verticalAlign=middle;spacingTop=-1;spacingLeft=3;spacingRight=3;rotatable=0;labelPosition=right;points=[];portConstraint=eastwest;" vertex="1" parent="w4jq3ZxT6kkiRwnjtZpk-106">
          <mxGeometry y="52" width="410" height="36" as="geometry" />
        </mxCell>
        <mxCell id="w4jq3ZxT6kkiRwnjtZpk-109" value="+ createNewDatabase() : void&#xa;" style="text;align=left;verticalAlign=top;spacingLeft=4;spacingRight=4;overflow=hidden;rotatable=0;points=[[0,0.5],[1,0.5]];portConstraint=eastwest;fontSize=12;fontStyle=4" vertex="1" parent="w4jq3ZxT6kkiRwnjtZpk-106">
          <mxGeometry y="88" width="410" height="32" as="geometry" />
        </mxCell>
        <mxCell id="w4jq3ZxT6kkiRwnjtZpk-110" value="&lt;u&gt;+ createTable(): void&lt;/u&gt;" style="text;align=left;verticalAlign=top;spacingLeft=4;spacingRight=4;overflow=hidden;rotatable=0;points=[[0,0.5],[1,0.5]];portConstraint=eastwest;fontSize=12;fontStyle=0;html=1;" vertex="1" parent="w4jq3ZxT6kkiRwnjtZpk-106">
          <mxGeometry y="120" width="410" height="32" as="geometry" />
        </mxCell>
        <mxCell id="w4jq3ZxT6kkiRwnjtZpk-111" value="&lt;u&gt;+ insertAd(content : String, mediatype: String, mediaPath:String): Void&amp;nbsp;&lt;/u&gt;" style="text;align=left;verticalAlign=top;spacingLeft=4;spacingRight=4;overflow=hidden;rotatable=0;points=[[0,0.5],[1,0.5]];portConstraint=eastwest;fontSize=12;fontStyle=0;html=1;" vertex="1" parent="w4jq3ZxT6kkiRwnjtZpk-106">
          <mxGeometry y="152" width="410" height="32" as="geometry" />
        </mxCell>
        <mxCell id="w4jq3ZxT6kkiRwnjtZpk-112" value="&lt;u&gt;+ getAdvertisements(): List&amp;lt;Ad&amp;gt;&lt;/u&gt;" style="text;align=left;verticalAlign=top;spacingLeft=4;spacingRight=4;overflow=hidden;rotatable=0;points=[[0,0.5],[1,0.5]];portConstraint=eastwest;fontSize=12;fontStyle=0;html=1;" vertex="1" parent="w4jq3ZxT6kkiRwnjtZpk-106">
          <mxGeometry y="184" width="410" height="32" as="geometry" />
        </mxCell>
        <mxCell id="w4jq3ZxT6kkiRwnjtZpk-113" value="&lt;u&gt;+ main(String[] args):void&lt;/u&gt;" style="text;align=left;verticalAlign=top;spacingLeft=4;spacingRight=4;overflow=hidden;rotatable=0;points=[[0,0.5],[1,0.5]];portConstraint=eastwest;fontSize=12;fontStyle=0;html=1;" vertex="1" parent="w4jq3ZxT6kkiRwnjtZpk-106">
          <mxGeometry y="216" width="410" height="32" as="geometry" />
        </mxCell>
        <mxCell id="w4jq3ZxT6kkiRwnjtZpk-114" value="MainApp" style="swimlane;fontStyle=3;align=center;verticalAlign=top;childLayout=stackLayout;horizontal=1;startSize=26;horizontalStack=0;resizeParent=1;resizeLast=0;collapsible=1;marginBottom=0;rounded=0;shadow=0;strokeWidth=1;fillColor=#dae8fc;strokeColor=#6c8ebf;" vertex="1" parent="WIyWlLk6GJQsqaUBKTNV-1">
          <mxGeometry x="70" y="252.68" width="290" height="110" as="geometry">
            <mxRectangle x="230" y="140" width="160" height="26" as="alternateBounds" />
          </mxGeometry>
        </mxCell>
        <mxCell id="w4jq3ZxT6kkiRwnjtZpk-115" value="" style="line;html=1;strokeWidth=1;align=left;verticalAlign=middle;spacingTop=-1;spacingLeft=3;spacingRight=3;rotatable=0;labelPosition=right;points=[];portConstraint=eastwest;" vertex="1" parent="w4jq3ZxT6kkiRwnjtZpk-114">
          <mxGeometry y="26" width="290" height="8" as="geometry" />
        </mxCell>
        <mxCell id="w4jq3ZxT6kkiRwnjtZpk-116" value="+ main(String [] Args): voids" style="text;align=left;verticalAlign=top;spacingLeft=4;spacingRight=4;overflow=hidden;rotatable=0;points=[[0,0.5],[1,0.5]];portConstraint=eastwest;fontStyle=4" vertex="1" parent="w4jq3ZxT6kkiRwnjtZpk-114">
          <mxGeometry y="34" width="290" height="26" as="geometry" />
        </mxCell>
        <mxCell id="w4jq3ZxT6kkiRwnjtZpk-117" value="NewsFetcher" style="swimlane;fontStyle=3;align=center;verticalAlign=top;childLayout=stackLayout;horizontal=1;startSize=26;horizontalStack=0;resizeParent=1;resizeLast=0;collapsible=1;marginBottom=0;rounded=0;shadow=0;strokeWidth=1;fillColor=#dae8fc;strokeColor=#6c8ebf;" vertex="1" parent="WIyWlLk6GJQsqaUBKTNV-1">
          <mxGeometry x="-120" y="760" width="470" height="150" as="geometry">
            <mxRectangle x="230" y="140" width="160" height="26" as="alternateBounds" />
          </mxGeometry>
        </mxCell>
        <mxCell id="w4jq3ZxT6kkiRwnjtZpk-118" value="- API_KEY: String = &quot;6IoGr7aC0nWvQaD8yIMnwtWKgl0jXocbvvUR8AAZ&quot; &#xa;- API_URL: String = &quot;https://api.thenewsapi.com/v1/news/all?api_token=&quot; + API_KEY" style="text;align=left;verticalAlign=top;spacingLeft=4;spacingRight=4;overflow=hidden;rotatable=0;points=[[0,0.5],[1,0.5]];portConstraint=eastwest;rounded=0;shadow=0;html=0;fontStyle=4" vertex="1" parent="w4jq3ZxT6kkiRwnjtZpk-117">
          <mxGeometry y="26" width="470" height="44" as="geometry" />
        </mxCell>
        <mxCell id="w4jq3ZxT6kkiRwnjtZpk-119" value="" style="line;html=1;strokeWidth=1;align=left;verticalAlign=middle;spacingTop=-1;spacingLeft=3;spacingRight=3;rotatable=0;labelPosition=right;points=[];portConstraint=eastwest;" vertex="1" parent="w4jq3ZxT6kkiRwnjtZpk-117">
          <mxGeometry y="70" width="470" height="8" as="geometry" />
        </mxCell>
        <mxCell id="w4jq3ZxT6kkiRwnjtZpk-120" value="+ fetchNews(keyword: String): List&lt;String&gt;&#xa;+ startNewsScrolling(textArea: JTextArea, newsTitles: List&lt;String&gt; ): void " style="text;align=left;verticalAlign=top;spacingLeft=4;spacingRight=4;overflow=hidden;rotatable=0;points=[[0,0.5],[1,0.5]];portConstraint=eastwest;fontStyle=4" vertex="1" parent="w4jq3ZxT6kkiRwnjtZpk-117">
          <mxGeometry y="78" width="470" height="62" as="geometry" />
        </mxCell>
        <mxCell id="w4jq3ZxT6kkiRwnjtZpk-121" value="Station" style="swimlane;fontStyle=3;align=center;verticalAlign=top;childLayout=stackLayout;horizontal=1;startSize=26;horizontalStack=0;resizeParent=1;resizeLast=0;collapsible=1;marginBottom=0;rounded=0;shadow=0;strokeWidth=1;fillColor=#dae8fc;strokeColor=#6c8ebf;" vertex="1" parent="WIyWlLk6GJQsqaUBKTNV-1">
          <mxGeometry x="390" y="870" width="410" height="220" as="geometry">
            <mxRectangle x="230" y="140" width="160" height="26" as="alternateBounds" />
          </mxGeometry>
        </mxCell>
        <mxCell id="w4jq3ZxT6kkiRwnjtZpk-122" value="-__code__: String&#xa;- __name__: String&#xa;- __x__: int&#xa;- __y__: int&#xa;-__commonLines__: String" style="text;align=left;verticalAlign=top;spacingLeft=4;spacingRight=4;overflow=hidden;rotatable=0;points=[[0,0.5],[1,0.5]];portConstraint=eastwest;" vertex="1" parent="w4jq3ZxT6kkiRwnjtZpk-121">
          <mxGeometry y="26" width="410" height="84" as="geometry" />
        </mxCell>
        <mxCell id="w4jq3ZxT6kkiRwnjtZpk-123" value="" style="line;html=1;strokeWidth=1;align=left;verticalAlign=middle;spacingTop=-1;spacingLeft=3;spacingRight=3;rotatable=0;labelPosition=right;points=[];portConstraint=eastwest;" vertex="1" parent="w4jq3ZxT6kkiRwnjtZpk-121">
          <mxGeometry y="110" width="410" height="8" as="geometry" />
        </mxCell>
        <mxCell id="w4jq3ZxT6kkiRwnjtZpk-124" value="+ Station(code: String, name: String, x: int, y: int, commonLines: String)&#xa;+ getCode(): String&#xa;+ getName(): String&#xa;+ getX(): int&#xa;+ getY(): int&#xa;+ getCommonLines(): String" style="text;align=left;verticalAlign=top;spacingLeft=4;spacingRight=4;overflow=hidden;rotatable=0;points=[[0,0.5],[1,0.5]];portConstraint=eastwest;" vertex="1" parent="w4jq3ZxT6kkiRwnjtZpk-121">
          <mxGeometry y="118" width="410" height="102" as="geometry" />
        </mxCell>
        <mxCell id="w4jq3ZxT6kkiRwnjtZpk-125" style="edgeStyle=elbowEdgeStyle;rounded=0;orthogonalLoop=1;jettySize=auto;html=1;" edge="1" parent="WIyWlLk6GJQsqaUBKTNV-1" source="w4jq3ZxT6kkiRwnjtZpk-126" target="w4jq3ZxT6kkiRwnjtZpk-122">
          <mxGeometry relative="1" as="geometry" />
        </mxCell>
        <mxCell id="w4jq3ZxT6kkiRwnjtZpk-126" value="TrainMap" style="swimlane;fontStyle=3;align=center;verticalAlign=top;childLayout=stackLayout;horizontal=1;startSize=26;horizontalStack=0;resizeParent=1;resizeLast=0;collapsible=1;marginBottom=0;rounded=0;shadow=0;strokeWidth=1;fillColor=#dae8fc;strokeColor=#6c8ebf;" vertex="1" parent="WIyWlLk6GJQsqaUBKTNV-1">
          <mxGeometry x="-20" y="447.5" width="370" height="225" as="geometry">
            <mxRectangle x="230" y="140" width="160" height="26" as="alternateBounds" />
          </mxGeometry>
        </mxCell>
        <mxCell id="w4jq3ZxT6kkiRwnjtZpk-127" value="-stationCoordinates: Map&lt;String, Point&gt;" style="text;align=left;verticalAlign=top;spacingLeft=4;spacingRight=4;overflow=hidden;rotatable=0;points=[[0,0.5],[1,0.5]];portConstraint=eastwest;fontStyle=0" vertex="1" parent="w4jq3ZxT6kkiRwnjtZpk-126">
          <mxGeometry y="26" width="370" height="26" as="geometry" />
        </mxCell>
        <mxCell id="w4jq3ZxT6kkiRwnjtZpk-128" value="" style="line;html=1;strokeWidth=1;align=left;verticalAlign=middle;spacingTop=-1;spacingLeft=3;spacingRight=3;rotatable=0;labelPosition=right;points=[];portConstraint=eastwest;" vertex="1" parent="w4jq3ZxT6kkiRwnjtZpk-126">
          <mxGeometry y="52" width="370" height="36" as="geometry" />
        </mxCell>
        <mxCell id="w4jq3ZxT6kkiRwnjtZpk-129" value="+ TrainMap():" style="text;align=left;verticalAlign=top;spacingLeft=4;spacingRight=4;overflow=hidden;rotatable=0;points=[[0,0.5],[1,0.5]];portConstraint=eastwest;fontSize=12;fontStyle=0" vertex="1" parent="w4jq3ZxT6kkiRwnjtZpk-126">
          <mxGeometry y="88" width="370" height="32" as="geometry" />
        </mxCell>
        <mxCell id="w4jq3ZxT6kkiRwnjtZpk-130" value="+ loadStationCoordinates(): void" style="text;align=left;verticalAlign=top;spacingLeft=4;spacingRight=4;overflow=hidden;rotatable=0;points=[[0,0.5],[1,0.5]];portConstraint=eastwest;fontSize=12;fontStyle=0;html=1;" vertex="1" parent="w4jq3ZxT6kkiRwnjtZpk-126">
          <mxGeometry y="120" width="370" height="32" as="geometry" />
        </mxCell>
        <mxCell id="w4jq3ZxT6kkiRwnjtZpk-131" value="+ getStationCoordinates(stationCode : String): Point" style="text;align=left;verticalAlign=top;spacingLeft=4;spacingRight=4;overflow=hidden;rotatable=0;points=[[0,0.5],[1,0.5]];portConstraint=eastwest;fontSize=12;fontStyle=0;html=1;" vertex="1" parent="w4jq3ZxT6kkiRwnjtZpk-126">
          <mxGeometry y="152" width="370" height="32" as="geometry" />
        </mxCell>
        <mxCell id="w4jq3ZxT6kkiRwnjtZpk-132" value="TrainTracker" style="swimlane;fontStyle=3;align=center;verticalAlign=top;childLayout=stackLayout;horizontal=1;startSize=26;horizontalStack=0;resizeParent=1;resizeLast=0;collapsible=1;marginBottom=0;rounded=0;shadow=0;strokeWidth=1;fillColor=#dae8fc;strokeColor=#6c8ebf;" vertex="1" parent="WIyWlLk6GJQsqaUBKTNV-1">
          <mxGeometry x="-380" y="30" width="410" height="260" as="geometry">
            <mxRectangle x="230" y="140" width="160" height="26" as="alternateBounds" />
          </mxGeometry>
        </mxCell>
        <mxCell id="w4jq3ZxT6kkiRwnjtZpk-133" value="- stations: Map&lt;String, Station&gt; = new HashMap&lt;&gt;()&#xa;- trackedLine: String&#xa;- trackedTrainNumber: int  " style="text;align=left;verticalAlign=top;spacingLeft=4;spacingRight=4;overflow=hidden;rotatable=0;points=[[0,0.5],[1,0.5]];portConstraint=eastwest;" vertex="1" parent="w4jq3ZxT6kkiRwnjtZpk-132">
          <mxGeometry y="26" width="410" height="84" as="geometry" />
        </mxCell>
        <mxCell id="w4jq3ZxT6kkiRwnjtZpk-134" value="" style="line;html=1;strokeWidth=1;align=left;verticalAlign=middle;spacingTop=-1;spacingLeft=3;spacingRight=3;rotatable=0;labelPosition=right;points=[];portConstraint=eastwest;" vertex="1" parent="w4jq3ZxT6kkiRwnjtZpk-132">
          <mxGeometry y="110" width="410" height="8" as="geometry" />
        </mxCell>
        <mxCell id="w4jq3ZxT6kkiRwnjtZpk-135" value="+ TrainTracker(trackedLine: String, trackedTrainNumber: int): void&#xa;- readCSVFile(filePath: String): void&#xa;+ getStation(code: String): Station  &#xa;+ getTrackedLine(): String&#xa;+ getTrackedTrainNumber(): int&#xa;+ getStationsForLine(String line): List&lt;Station&gt;&#xa;+ getPathForTrain(): List&lt;Station&gt;&#xa;+ getNextStation(currentStation: Station): Station&#xa;+ getPreviousStation(currentStation: Station ): Station  &#xa; &#xa;&#xa; &#xa;" style="text;align=left;verticalAlign=top;spacingLeft=4;spacingRight=4;overflow=hidden;rotatable=0;points=[[0,0.5],[1,0.5]];portConstraint=eastwest;" vertex="1" parent="w4jq3ZxT6kkiRwnjtZpk-132">
          <mxGeometry y="118" width="410" height="142" as="geometry" />
        </mxCell>
        <mxCell id="w4jq3ZxT6kkiRwnjtZpk-136" value="&lt;font style=&quot;font-size: 10px;&quot;&gt;&amp;lt;&amp;lt;throws&amp;gt;&amp;gt;&lt;/font&gt;&lt;div&gt;&lt;font style=&quot;font-size: 10px;&quot;&gt;IOException&lt;/font&gt;&lt;/div&gt;" style="rounded=0;whiteSpace=wrap;html=1;fillColor=#dae8fc;strokeColor=#6c8ebf;" vertex="1" parent="WIyWlLk6GJQsqaUBKTNV-1">
          <mxGeometry x="-590" y="150" width="100" height="50" as="geometry" />
        </mxCell>
        <mxCell id="w4jq3ZxT6kkiRwnjtZpk-137" style="edgeStyle=orthogonalEdgeStyle;rounded=0;orthogonalLoop=1;jettySize=auto;html=1;entryX=0.007;entryY=0.207;entryDx=0;entryDy=0;entryPerimeter=0;exitX=1;exitY=0.5;exitDx=0;exitDy=0;dashed=1;dashPattern=8 8;" edge="1" parent="WIyWlLk6GJQsqaUBKTNV-1" source="w4jq3ZxT6kkiRwnjtZpk-136" target="w4jq3ZxT6kkiRwnjtZpk-135">
          <mxGeometry relative="1" as="geometry">
            <mxPoint x="-480" y="181" as="sourcePoint" />
            <mxPoint x="-390" y="170.00399999999996" as="targetPoint" />
            <Array as="points">
              <mxPoint x="-490" y="177" />
              <mxPoint x="-439" y="177" />
            </Array>
          </mxGeometry>
        </mxCell>
        <mxCell id="w4jq3ZxT6kkiRwnjtZpk-138" value="&lt;font style=&quot;font-size: 10px;&quot;&gt;&amp;lt;&amp;lt;throws&amp;gt;&amp;gt;&lt;/font&gt;&lt;div&gt;&lt;font style=&quot;font-size: 10px;&quot;&gt;IOException&lt;/font&gt;&lt;/div&gt;" style="rounded=0;whiteSpace=wrap;html=1;fillColor=#dae8fc;strokeColor=#6c8ebf;" vertex="1" parent="WIyWlLk6GJQsqaUBKTNV-1">
          <mxGeometry x="-270" y="830" width="100" height="50" as="geometry" />
        </mxCell>
        <mxCell id="w4jq3ZxT6kkiRwnjtZpk-139" style="edgeStyle=orthogonalEdgeStyle;rounded=0;orthogonalLoop=1;jettySize=auto;html=1;exitX=1;exitY=0.5;exitDx=0;exitDy=0;entryX=0.006;entryY=0.249;entryDx=0;entryDy=0;entryPerimeter=0;dashed=1;dashPattern=8 8;" edge="1" parent="WIyWlLk6GJQsqaUBKTNV-1" target="w4jq3ZxT6kkiRwnjtZpk-120">
          <mxGeometry relative="1" as="geometry">
            <mxPoint x="-170" y="854.85" as="sourcePoint" />
            <mxPoint x="-101.88000000000011" y="855.148" as="targetPoint" />
            <Array as="points">
              <mxPoint x="-170" y="853" />
              <mxPoint x="-135" y="853" />
            </Array>
          </mxGeometry>
        </mxCell>
        <mxCell id="w4jq3ZxT6kkiRwnjtZpk-140" value="" style="strokeWidth=2;html=1;shape=mxgraph.flowchart.decision;whiteSpace=wrap;rotation=0;" vertex="1" parent="WIyWlLk6GJQsqaUBKTNV-1">
          <mxGeometry x="440" y="362.68" width="22.68" height="27.32" as="geometry" />
        </mxCell>
        <mxCell id="w4jq3ZxT6kkiRwnjtZpk-141" style="rounded=0;orthogonalLoop=1;jettySize=auto;html=1;entryX=0.939;entryY=0.001;entryDx=0;entryDy=0;entryPerimeter=0;strokeColor=default;exitX=0;exitY=0.5;exitDx=0;exitDy=0;exitPerimeter=0;" edge="1" parent="WIyWlLk6GJQsqaUBKTNV-1" source="w4jq3ZxT6kkiRwnjtZpk-140" target="w4jq3ZxT6kkiRwnjtZpk-126">
          <mxGeometry relative="1" as="geometry">
            <mxPoint x="440" y="250" as="sourcePoint" />
          </mxGeometry>
        </mxCell>
        <mxCell id="w4jq3ZxT6kkiRwnjtZpk-142" style="edgeStyle=elbowEdgeStyle;rounded=0;orthogonalLoop=1;jettySize=auto;html=1;exitX=0;exitY=0.5;exitDx=0;exitDy=0;exitPerimeter=0;entryX=1.002;entryY=0.138;entryDx=0;entryDy=0;entryPerimeter=0;" edge="1" parent="WIyWlLk6GJQsqaUBKTNV-1" source="w4jq3ZxT6kkiRwnjtZpk-143" target="w4jq3ZxT6kkiRwnjtZpk-120">
          <mxGeometry relative="1" as="geometry">
            <mxPoint x="380" y="830" as="targetPoint" />
            <Array as="points">
              <mxPoint x="410" y="850" />
            </Array>
          </mxGeometry>
        </mxCell>
        <mxCell id="w4jq3ZxT6kkiRwnjtZpk-143" value="" style="strokeWidth=2;html=1;shape=mxgraph.flowchart.decision;whiteSpace=wrap;rotation=0;" vertex="1" parent="WIyWlLk6GJQsqaUBKTNV-1">
          <mxGeometry x="440" y="721.34" width="22.68" height="27.32" as="geometry" />
        </mxCell>
        <mxCell id="w4jq3ZxT6kkiRwnjtZpk-144" value="&lt;font style=&quot;font-size: 17px;&quot;&gt;*&lt;/font&gt;" style="endArrow=block;endFill=1;html=1;edgeStyle=orthogonalEdgeStyle;align=left;verticalAlign=top;rounded=0;entryX=0.618;entryY=-0.012;entryDx=0;entryDy=0;entryPerimeter=0;exitX=0.344;exitY=1.002;exitDx=0;exitDy=0;exitPerimeter=0;" edge="1" parent="WIyWlLk6GJQsqaUBKTNV-1" source="w4jq3ZxT6kkiRwnjtZpk-99" target="w4jq3ZxT6kkiRwnjtZpk-121">
          <mxGeometry x="0.6916" y="7" relative="1" as="geometry">
            <mxPoint x="560" y="780" as="sourcePoint" />
            <mxPoint x="720" y="780" as="targetPoint" />
            <mxPoint as="offset" />
          </mxGeometry>
        </mxCell>
        <mxCell id="w4jq3ZxT6kkiRwnjtZpk-145" value="1" style="edgeLabel;resizable=0;html=1;align=left;verticalAlign=bottom;" connectable="0" vertex="1" parent="w4jq3ZxT6kkiRwnjtZpk-144">
          <mxGeometry x="-1" relative="1" as="geometry" />
        </mxCell>
        <mxCell id="w4jq3ZxT6kkiRwnjtZpk-146" value="1" style="text;html=1;align=center;verticalAlign=middle;resizable=0;points=[];autosize=1;strokeColor=none;fillColor=none;" vertex="1" parent="WIyWlLk6GJQsqaUBKTNV-1">
          <mxGeometry x="432.68" y="330" width="30" height="30" as="geometry" />
        </mxCell>
        <mxCell id="w4jq3ZxT6kkiRwnjtZpk-147" value="1" style="text;html=1;align=center;verticalAlign=middle;resizable=0;points=[];autosize=1;strokeColor=none;fillColor=none;" vertex="1" parent="WIyWlLk6GJQsqaUBKTNV-1">
          <mxGeometry x="310" y="410" width="30" height="30" as="geometry" />
        </mxCell>
        <mxCell id="w4jq3ZxT6kkiRwnjtZpk-148" value="" style="strokeWidth=2;html=1;shape=mxgraph.flowchart.decision;whiteSpace=wrap;rotation=0;" vertex="1" parent="WIyWlLk6GJQsqaUBKTNV-1">
          <mxGeometry x="440" y="270" width="22.68" height="27.32" as="geometry" />
        </mxCell>
        <mxCell id="w4jq3ZxT6kkiRwnjtZpk-149" value="" style="endArrow=classic;html=1;rounded=0;entryX=1;entryY=1;entryDx=0;entryDy=0;exitX=0;exitY=0.5;exitDx=0;exitDy=0;exitPerimeter=0;" edge="1" parent="WIyWlLk6GJQsqaUBKTNV-1" source="w4jq3ZxT6kkiRwnjtZpk-148" target="w4jq3ZxT6kkiRwnjtZpk-90">
          <mxGeometry width="50" height="50" relative="1" as="geometry">
            <mxPoint x="500" y="310" as="sourcePoint" />
            <mxPoint x="550" y="260" as="targetPoint" />
          </mxGeometry>
        </mxCell>
        <mxCell id="w4jq3ZxT6kkiRwnjtZpk-150" value="1" style="text;html=1;align=center;verticalAlign=middle;resizable=0;points=[];autosize=1;strokeColor=none;fillColor=none;" vertex="1" parent="WIyWlLk6GJQsqaUBKTNV-1">
          <mxGeometry x="432.68" y="240" width="30" height="30" as="geometry" />
        </mxCell>
        <mxCell id="w4jq3ZxT6kkiRwnjtZpk-151" value="1" style="text;html=1;align=center;verticalAlign=middle;resizable=0;points=[];autosize=1;strokeColor=none;fillColor=none;" vertex="1" parent="WIyWlLk6GJQsqaUBKTNV-1">
          <mxGeometry x="390" y="160" width="30" height="30" as="geometry" />
        </mxCell>
        <mxCell id="w4jq3ZxT6kkiRwnjtZpk-152" style="edgeStyle=elbowEdgeStyle;rounded=0;orthogonalLoop=1;jettySize=auto;html=1;exitX=0;exitY=0.5;exitDx=0;exitDy=0;exitPerimeter=0;entryX=0.5;entryY=1;entryDx=0;entryDy=0;" edge="1" parent="WIyWlLk6GJQsqaUBKTNV-1" source="w4jq3ZxT6kkiRwnjtZpk-153" target="w4jq3ZxT6kkiRwnjtZpk-106">
          <mxGeometry relative="1" as="geometry">
            <Array as="points">
              <mxPoint x="110" y="710" />
            </Array>
          </mxGeometry>
        </mxCell>
        <mxCell id="w4jq3ZxT6kkiRwnjtZpk-153" value="" style="strokeWidth=2;html=1;shape=mxgraph.flowchart.decision;whiteSpace=wrap;rotation=0;" vertex="1" parent="WIyWlLk6GJQsqaUBKTNV-1">
          <mxGeometry x="440" y="590" width="22.68" height="27.32" as="geometry" />
        </mxCell>
        <mxCell id="w4jq3ZxT6kkiRwnjtZpk-154" value="Use" style="endArrow=open;endSize=12;dashed=1;html=1;rounded=0;exitX=-0.005;exitY=0.913;exitDx=0;exitDy=0;exitPerimeter=0;" edge="1" parent="WIyWlLk6GJQsqaUBKTNV-1" source="w4jq3ZxT6kkiRwnjtZpk-97">
          <mxGeometry width="160" relative="1" as="geometry">
            <mxPoint x="410" y="470" as="sourcePoint" />
            <mxPoint x="270" y="360" as="targetPoint" />
          </mxGeometry>
        </mxCell>
        <mxCell id="w4jq3ZxT6kkiRwnjtZpk-155" value="&lt;font style=&quot;font-size: 15px;&quot;&gt;*&lt;/font&gt;" style="text;html=1;align=center;verticalAlign=middle;resizable=0;points=[];autosize=1;strokeColor=none;fillColor=none;" vertex="1" parent="WIyWlLk6GJQsqaUBKTNV-1">
          <mxGeometry x="-320" y="690" width="30" height="30" as="geometry" />
        </mxCell>
        <mxCell id="w4jq3ZxT6kkiRwnjtZpk-156" value="1" style="text;html=1;align=center;verticalAlign=middle;resizable=0;points=[];autosize=1;strokeColor=none;fillColor=none;" vertex="1" parent="WIyWlLk6GJQsqaUBKTNV-1">
          <mxGeometry x="415" y="578" width="30" height="30" as="geometry" />
        </mxCell>
        <mxCell id="w4jq3ZxT6kkiRwnjtZpk-157" value="" style="endArrow=none;html=1;rounded=0;entryX=0.286;entryY=0.003;entryDx=0;entryDy=0;entryPerimeter=0;" edge="1" parent="WIyWlLk6GJQsqaUBKTNV-1" target="w4jq3ZxT6kkiRwnjtZpk-126">
          <mxGeometry width="50" height="50" relative="1" as="geometry">
            <mxPoint x="-130" y="290" as="sourcePoint" />
            <mxPoint x="30" y="340" as="targetPoint" />
          </mxGeometry>
        </mxCell>
        <mxCell id="w4jq3ZxT6kkiRwnjtZpk-158" value="1" style="text;html=1;align=center;verticalAlign=middle;resizable=0;points=[];autosize=1;strokeColor=none;fillColor=none;" vertex="1" parent="WIyWlLk6GJQsqaUBKTNV-1">
          <mxGeometry x="-150" y="290" width="30" height="30" as="geometry" />
        </mxCell>
        <mxCell id="w4jq3ZxT6kkiRwnjtZpk-159" value="1" style="text;html=1;align=center;verticalAlign=middle;resizable=0;points=[];autosize=1;strokeColor=none;fillColor=none;" vertex="1" parent="WIyWlLk6GJQsqaUBKTNV-1">
          <mxGeometry x="85" y="417.5" width="30" height="30" as="geometry" />
        </mxCell>
        <mxCell id="w4jq3ZxT6kkiRwnjtZpk-160" style="edgeStyle=elbowEdgeStyle;rounded=0;orthogonalLoop=1;jettySize=auto;html=1;exitX=1;exitY=0.5;exitDx=0;exitDy=0;entryX=-0.004;entryY=1.062;entryDx=0;entryDy=0;entryPerimeter=0;" edge="1" parent="WIyWlLk6GJQsqaUBKTNV-1" source="w4jq3ZxT6kkiRwnjtZpk-101" target="w4jq3ZxT6kkiRwnjtZpk-107">
          <mxGeometry relative="1" as="geometry" />
        </mxCell>
        <mxCell id="w4jq3ZxT6kkiRwnjtZpk-161" value="&lt;font style=&quot;font-size: 16px;&quot;&gt;*&lt;/font&gt;" style="text;html=1;align=center;verticalAlign=middle;resizable=0;points=[];autosize=1;strokeColor=none;fillColor=none;" vertex="1" parent="WIyWlLk6GJQsqaUBKTNV-1">
          <mxGeometry x="-585" y="498" width="30" height="30" as="geometry" />
        </mxCell>
        <mxCell id="w4jq3ZxT6kkiRwnjtZpk-162" value="1" style="text;html=1;align=center;verticalAlign=middle;resizable=0;points=[];autosize=1;strokeColor=none;fillColor=none;" vertex="1" parent="WIyWlLk6GJQsqaUBKTNV-1">
          <mxGeometry x="-535" y="448" width="30" height="30" as="geometry" />
        </mxCell>
        <mxCell id="w4jq3ZxT6kkiRwnjtZpk-163" style="edgeStyle=elbowEdgeStyle;rounded=0;orthogonalLoop=1;jettySize=auto;html=1;endArrow=none;endFill=0;entryX=-0.003;entryY=0.225;entryDx=0;entryDy=0;entryPerimeter=0;" edge="1" parent="WIyWlLk6GJQsqaUBKTNV-1" source="w4jq3ZxT6kkiRwnjtZpk-135" target="w4jq3ZxT6kkiRwnjtZpk-124">
          <mxGeometry relative="1" as="geometry">
            <mxPoint x="380" y="1012" as="targetPoint" />
            <Array as="points">
              <mxPoint x="-980" y="770" />
            </Array>
          </mxGeometry>
        </mxCell>
        <mxCell id="w4jq3ZxT6kkiRwnjtZpk-164" value="&lt;font style=&quot;font-size: 16px;&quot;&gt;*&lt;/font&gt;" style="text;html=1;align=center;verticalAlign=middle;resizable=0;points=[];autosize=1;strokeColor=none;fillColor=none;" vertex="1" parent="WIyWlLk6GJQsqaUBKTNV-1">
          <mxGeometry x="350" y="980" width="30" height="30" as="geometry" />
        </mxCell>
        <mxCell id="w4jq3ZxT6kkiRwnjtZpk-165" value="&lt;font style=&quot;font-size: 15px;&quot;&gt;1&lt;/font&gt;" style="text;html=1;align=center;verticalAlign=middle;resizable=0;points=[];autosize=1;strokeColor=none;fillColor=none;" vertex="1" parent="WIyWlLk6GJQsqaUBKTNV-1">
          <mxGeometry x="-425" y="218" width="30" height="30" as="geometry" />
        </mxCell>
        <mxCell id="w4jq3ZxT6kkiRwnjtZpk-166" value="1" style="text;html=1;align=center;verticalAlign=middle;resizable=0;points=[];autosize=1;strokeColor=none;fillColor=none;" vertex="1" parent="WIyWlLk6GJQsqaUBKTNV-1">
          <mxGeometry x="355" y="528" width="30" height="30" as="geometry" />
        </mxCell>
        <mxCell id="w4jq3ZxT6kkiRwnjtZpk-167" value="&lt;font style=&quot;font-size: 15px;&quot;&gt;*&lt;/font&gt;" style="text;html=1;align=center;verticalAlign=middle;resizable=0;points=[];autosize=1;strokeColor=none;fillColor=none;" vertex="1" parent="WIyWlLk6GJQsqaUBKTNV-1">
          <mxGeometry x="360" y="940" width="30" height="30" as="geometry" />
        </mxCell>
        <mxCell id="w4jq3ZxT6kkiRwnjtZpk-168" value="AdPanel" style="swimlane;fontStyle=3;align=center;verticalAlign=top;childLayout=stackLayout;horizontal=1;startSize=26;horizontalStack=0;resizeParent=1;resizeLast=0;collapsible=1;marginBottom=0;rounded=0;shadow=0;strokeWidth=1;fillColor=#dae8fc;strokeColor=#6c8ebf;" vertex="1" parent="WIyWlLk6GJQsqaUBKTNV-1">
          <mxGeometry x="890" y="578" width="290" height="100" as="geometry">
            <mxRectangle x="230" y="140" width="160" height="26" as="alternateBounds" />
          </mxGeometry>
        </mxCell>
        <mxCell id="w4jq3ZxT6kkiRwnjtZpk-169" value="+ run(): void" style="text;align=left;verticalAlign=top;spacingLeft=4;spacingRight=4;overflow=hidden;rotatable=0;points=[[0,0.5],[1,0.5]];portConstraint=eastwest;" vertex="1" parent="w4jq3ZxT6kkiRwnjtZpk-168">
          <mxGeometry y="26" width="290" height="26" as="geometry" />
        </mxCell>
        <mxCell id="w4jq3ZxT6kkiRwnjtZpk-170" value="" style="line;html=1;strokeWidth=1;align=left;verticalAlign=middle;spacingTop=-1;spacingLeft=3;spacingRight=3;rotatable=0;labelPosition=right;points=[];portConstraint=eastwest;" vertex="1" parent="w4jq3ZxT6kkiRwnjtZpk-168">
          <mxGeometry y="52" width="290" height="8" as="geometry" />
        </mxCell>
        <mxCell id="w4jq3ZxT6kkiRwnjtZpk-171" value="&lt;&lt;extends&gt;&gt; TimerTask" style="text;align=left;verticalAlign=top;spacingLeft=4;spacingRight=4;overflow=hidden;rotatable=0;points=[[0,0.5],[1,0.5]];portConstraint=eastwest;" vertex="1" parent="w4jq3ZxT6kkiRwnjtZpk-168">
          <mxGeometry y="60" width="290" height="26" as="geometry" />
        </mxCell>
        <mxCell id="w4jq3ZxT6kkiRwnjtZpk-172" value="AdTask" style="swimlane;fontStyle=3;align=center;verticalAlign=top;childLayout=stackLayout;horizontal=1;startSize=26;horizontalStack=0;resizeParent=1;resizeLast=0;collapsible=1;marginBottom=0;rounded=0;shadow=0;strokeWidth=1;fillColor=#dae8fc;strokeColor=#6c8ebf;" vertex="1" parent="WIyWlLk6GJQsqaUBKTNV-1">
          <mxGeometry x="890" y="410" width="290" height="130" as="geometry">
            <mxRectangle x="230" y="140" width="160" height="26" as="alternateBounds" />
          </mxGeometry>
        </mxCell>
        <mxCell id="w4jq3ZxT6kkiRwnjtZpk-173" value="- adImage: Image" style="text;align=left;verticalAlign=top;spacingLeft=4;spacingRight=4;overflow=hidden;rotatable=0;points=[[0,0.5],[1,0.5]];portConstraint=eastwest;" vertex="1" parent="w4jq3ZxT6kkiRwnjtZpk-172">
          <mxGeometry y="26" width="290" height="26" as="geometry" />
        </mxCell>
        <mxCell id="w4jq3ZxT6kkiRwnjtZpk-174" value="" style="line;html=1;strokeWidth=1;align=left;verticalAlign=middle;spacingTop=-1;spacingLeft=3;spacingRight=3;rotatable=0;labelPosition=right;points=[];portConstraint=eastwest;" vertex="1" parent="w4jq3ZxT6kkiRwnjtZpk-172">
          <mxGeometry y="52" width="290" height="8" as="geometry" />
        </mxCell>
        <mxCell id="w4jq3ZxT6kkiRwnjtZpk-175" value="+ setAdImage(imagePath: String)&#xa;+ setAdImage(image: Image)&#xa;# paintComponent(g: Graphics): void&#xa;&lt;&lt;extends&gt;&gt; TimerTask" style="text;align=left;verticalAlign=top;spacingLeft=4;spacingRight=4;overflow=hidden;rotatable=0;points=[[0,0.5],[1,0.5]];portConstraint=eastwest;" vertex="1" parent="w4jq3ZxT6kkiRwnjtZpk-172">
          <mxGeometry y="60" width="290" height="70" as="geometry" />
        </mxCell>
        <mxCell id="w4jq3ZxT6kkiRwnjtZpk-176" value="" style="rhombus;whiteSpace=wrap;html=1;fillColor=#dae8fc;strokeColor=#6c8ebf;" vertex="1" parent="WIyWlLk6GJQsqaUBKTNV-1">
          <mxGeometry x="780" y="545" width="30" height="30" as="geometry" />
        </mxCell>
        <mxCell id="w4jq3ZxT6kkiRwnjtZpk-177" value="" style="rhombus;whiteSpace=wrap;html=1;fillColor=#dae8fc;strokeColor=#6c8ebf;" vertex="1" parent="WIyWlLk6GJQsqaUBKTNV-1">
          <mxGeometry x="782.68" y="610" width="30" height="30" as="geometry" />
        </mxCell>
        <mxCell id="w4jq3ZxT6kkiRwnjtZpk-178" value="" style="endArrow=none;html=1;rounded=0;entryX=0;entryY=0.5;entryDx=0;entryDy=0;exitX=1;exitY=0.5;exitDx=0;exitDy=0;" edge="1" parent="WIyWlLk6GJQsqaUBKTNV-1" source="w4jq3ZxT6kkiRwnjtZpk-176" target="w4jq3ZxT6kkiRwnjtZpk-175">
          <mxGeometry width="50" height="50" relative="1" as="geometry">
            <mxPoint x="810" y="558" as="sourcePoint" />
            <mxPoint x="880" y="480" as="targetPoint" />
            <Array as="points">
              <mxPoint x="810" y="505" />
            </Array>
          </mxGeometry>
        </mxCell>
        <mxCell id="w4jq3ZxT6kkiRwnjtZpk-179" value="" style="endArrow=none;html=1;rounded=0;entryX=-0.003;entryY=0.895;entryDx=0;entryDy=0;entryPerimeter=0;exitX=1;exitY=0.5;exitDx=0;exitDy=0;" edge="1" parent="WIyWlLk6GJQsqaUBKTNV-1" source="w4jq3ZxT6kkiRwnjtZpk-177" target="w4jq3ZxT6kkiRwnjtZpk-169">
          <mxGeometry width="50" height="50" relative="1" as="geometry">
            <mxPoint x="812.68" y="628" as="sourcePoint" />
            <mxPoint x="862.68" y="578" as="targetPoint" />
            <Array as="points">
              <mxPoint x="840" y="630" />
            </Array>
          </mxGeometry>
        </mxCell>
      </root>
    </mxGraphModel>
  </diagram>
</mxfile>
